<mxfile host="app.diagrams.net" agent="Mozilla/5.0 (Windows NT 10.0; Win64; x64) AppleWebKit/537.36 (KHTML, like Gecko) Chrome/131.0.0.0 Safari/537.36" version="25.0.3">
  <diagram id="C5RBs43oDa-KdzZeNtuy" name="Page-1">
    <mxGraphModel dx="1434" dy="1953" grid="1" gridSize="10" guides="1" tooltips="1" connect="1" arrows="1" fold="1" page="1" pageScale="1" pageWidth="827" pageHeight="1169" math="0" shadow="0">
      <root>
        <mxCell id="WIyWlLk6GJQsqaUBKTNV-0" />
        <mxCell id="WIyWlLk6GJQsqaUBKTNV-1" parent="WIyWlLk6GJQsqaUBKTNV-0" />
        <mxCell id="4gbLBs8aLed_kc7UMqUY-0" value="Piece" style="swimlane;fontSize=16;" vertex="1" parent="WIyWlLk6GJQsqaUBKTNV-1">
          <mxGeometry x="451" y="-900" width="370" height="350" as="geometry" />
        </mxCell>
        <mxCell id="4gbLBs8aLed_kc7UMqUY-2" value="" style="endArrow=none;html=1;rounded=0;fontSize=16;entryX=1.003;entryY=0.913;entryDx=0;entryDy=0;entryPerimeter=0;" edge="1" parent="4gbLBs8aLed_kc7UMqUY-0">
          <mxGeometry width="50" height="50" relative="1" as="geometry">
            <mxPoint y="240" as="sourcePoint" />
            <mxPoint x="371.11599999999976" y="239.1199999999999" as="targetPoint" />
          </mxGeometry>
        </mxCell>
        <mxCell id="4gbLBs8aLed_kc7UMqUY-3" value="&lt;div&gt;&lt;br&gt;&lt;/div&gt;" style="text;strokeColor=none;fillColor=none;align=left;verticalAlign=top;spacingLeft=4;spacingRight=4;overflow=hidden;rotatable=0;points=[[0,0.5],[1,0.5]];portConstraint=eastwest;whiteSpace=wrap;html=1;labelBorderColor=none;fontSize=16;" vertex="1" parent="4gbLBs8aLed_kc7UMqUY-0">
          <mxGeometry y="260" width="240" height="90" as="geometry" />
        </mxCell>
        <mxCell id="4gbLBs8aLed_kc7UMqUY-4" value="" style="endArrow=none;html=1;rounded=0;fontSize=16;entryX=1.008;entryY=0.996;entryDx=0;entryDy=0;entryPerimeter=0;" edge="1" parent="4gbLBs8aLed_kc7UMqUY-0">
          <mxGeometry width="50" height="50" relative="1" as="geometry">
            <mxPoint y="260" as="sourcePoint" />
            <mxPoint x="372.9760000000001" y="259.03999999999996" as="targetPoint" />
          </mxGeometry>
        </mxCell>
        <mxCell id="4gbLBs8aLed_kc7UMqUY-5" value="Queen" style="swimlane;fontSize=16;" vertex="1" parent="WIyWlLk6GJQsqaUBKTNV-1">
          <mxGeometry x="831" y="-330" width="240" height="100" as="geometry" />
        </mxCell>
        <mxCell id="4gbLBs8aLed_kc7UMqUY-7" value="" style="endArrow=none;html=1;rounded=0;fontSize=16;entryX=1.004;entryY=1.038;entryDx=0;entryDy=0;entryPerimeter=0;" edge="1" parent="4gbLBs8aLed_kc7UMqUY-5">
          <mxGeometry width="50" height="50" relative="1" as="geometry">
            <mxPoint y="81" as="sourcePoint" />
            <mxPoint x="240.0039999999999" y="81.11999999999995" as="targetPoint" />
          </mxGeometry>
        </mxCell>
        <mxCell id="4gbLBs8aLed_kc7UMqUY-8" value="&lt;br&gt;" style="edgeStyle=orthogonalEdgeStyle;rounded=0;orthogonalLoop=1;jettySize=auto;html=1;exitX=0;exitY=0.5;exitDx=0;exitDy=0;fontSize=16;dashed=1;strokeWidth=2;endArrow=block;endFill=0;elbow=vertical;curved=1;endSize=12;" edge="1" parent="WIyWlLk6GJQsqaUBKTNV-1">
          <mxGeometry x="0.7066" y="-130" relative="1" as="geometry">
            <mxPoint x="641" y="-550" as="targetPoint" />
            <Array as="points">
              <mxPoint x="741" y="-280" />
              <mxPoint x="741" y="-470" />
              <mxPoint x="641" y="-470" />
            </Array>
            <mxPoint as="offset" />
            <mxPoint x="830" y="-280" as="sourcePoint" />
          </mxGeometry>
        </mxCell>
        <mxCell id="4gbLBs8aLed_kc7UMqUY-9" value="King" style="swimlane;fontSize=16;" vertex="1" parent="WIyWlLk6GJQsqaUBKTNV-1">
          <mxGeometry x="80" y="-310" width="240" height="130" as="geometry" />
        </mxCell>
        <mxCell id="4gbLBs8aLed_kc7UMqUY-11" value="" style="endArrow=none;html=1;rounded=0;fontSize=16;entryX=1.004;entryY=1.038;entryDx=0;entryDy=0;entryPerimeter=0;" edge="1" parent="4gbLBs8aLed_kc7UMqUY-9">
          <mxGeometry width="50" height="50" relative="1" as="geometry">
            <mxPoint x="-1" y="110" as="sourcePoint" />
            <mxPoint x="239.0039999999999" y="110.11999999999995" as="targetPoint" />
          </mxGeometry>
        </mxCell>
        <mxCell id="4gbLBs8aLed_kc7UMqUY-12" style="edgeStyle=orthogonalEdgeStyle;rounded=0;orthogonalLoop=1;jettySize=auto;html=1;fontSize=16;dashed=1;strokeWidth=2;endArrow=block;endFill=0;elbow=vertical;curved=1;endSize=12;exitX=1.017;exitY=0.588;exitDx=0;exitDy=0;exitPerimeter=0;" edge="1" parent="WIyWlLk6GJQsqaUBKTNV-1">
          <mxGeometry relative="1" as="geometry">
            <mxPoint x="324.097" y="-242.96000000000004" as="sourcePoint" />
            <mxPoint x="550" y="-550" as="targetPoint" />
            <Array as="points">
              <mxPoint x="344" y="-243" />
              <mxPoint x="344" y="-420" />
              <mxPoint x="370" y="-420" />
              <mxPoint x="370" y="-440" />
              <mxPoint x="550" y="-440" />
            </Array>
          </mxGeometry>
        </mxCell>
        <mxCell id="4gbLBs8aLed_kc7UMqUY-13" value="Pawn" style="swimlane;fontSize=16;" vertex="1" parent="WIyWlLk6GJQsqaUBKTNV-1">
          <mxGeometry x="461" y="-330" width="240" height="120" as="geometry" />
        </mxCell>
        <mxCell id="4gbLBs8aLed_kc7UMqUY-15" value="" style="endArrow=none;html=1;rounded=0;fontSize=16;entryX=1.004;entryY=1.038;entryDx=0;entryDy=0;entryPerimeter=0;" edge="1" parent="4gbLBs8aLed_kc7UMqUY-13">
          <mxGeometry width="50" height="50" relative="1" as="geometry">
            <mxPoint y="110" as="sourcePoint" />
            <mxPoint x="240.0039999999999" y="110.11999999999995" as="targetPoint" />
          </mxGeometry>
        </mxCell>
        <mxCell id="4gbLBs8aLed_kc7UMqUY-16" value="&lt;br&gt;" style="edgeStyle=orthogonalEdgeStyle;rounded=0;orthogonalLoop=1;jettySize=auto;html=1;fontSize=16;dashed=1;strokeWidth=2;endArrow=block;endFill=0;elbow=vertical;curved=1;endSize=12;exitX=0.5;exitY=0;exitDx=0;exitDy=0;" edge="1" parent="WIyWlLk6GJQsqaUBKTNV-1" source="4gbLBs8aLed_kc7UMqUY-13">
          <mxGeometry relative="1" as="geometry">
            <mxPoint x="581" y="-330" as="sourcePoint" />
            <mxPoint x="580" y="-550" as="targetPoint" />
          </mxGeometry>
        </mxCell>
        <mxCell id="4gbLBs8aLed_kc7UMqUY-17" value="Rook" style="swimlane;fontSize=16;" vertex="1" parent="WIyWlLk6GJQsqaUBKTNV-1">
          <mxGeometry x="831" y="-480" width="240" height="100" as="geometry" />
        </mxCell>
        <mxCell id="4gbLBs8aLed_kc7UMqUY-19" value="" style="endArrow=none;html=1;rounded=0;fontSize=16;entryX=1.004;entryY=1.038;entryDx=0;entryDy=0;entryPerimeter=0;" edge="1" parent="4gbLBs8aLed_kc7UMqUY-17">
          <mxGeometry width="50" height="50" relative="1" as="geometry">
            <mxPoint y="81" as="sourcePoint" />
            <mxPoint x="240.0039999999999" y="81.11999999999995" as="targetPoint" />
          </mxGeometry>
        </mxCell>
        <mxCell id="4gbLBs8aLed_kc7UMqUY-20" value="Bishop" style="swimlane;fontSize=16;" vertex="1" parent="WIyWlLk6GJQsqaUBKTNV-1">
          <mxGeometry x="50" y="-550" width="240" height="100" as="geometry" />
        </mxCell>
        <mxCell id="4gbLBs8aLed_kc7UMqUY-22" value="" style="endArrow=none;html=1;rounded=0;fontSize=16;entryX=1.004;entryY=1.038;entryDx=0;entryDy=0;entryPerimeter=0;" edge="1" parent="4gbLBs8aLed_kc7UMqUY-20">
          <mxGeometry width="50" height="50" relative="1" as="geometry">
            <mxPoint y="81" as="sourcePoint" />
            <mxPoint x="240.0039999999999" y="81.11999999999995" as="targetPoint" />
          </mxGeometry>
        </mxCell>
        <mxCell id="4gbLBs8aLed_kc7UMqUY-23" value="Knight" style="swimlane;fontSize=16;" vertex="1" parent="WIyWlLk6GJQsqaUBKTNV-1">
          <mxGeometry x="900" y="-610" width="240" height="100" as="geometry" />
        </mxCell>
        <mxCell id="4gbLBs8aLed_kc7UMqUY-25" value="" style="endArrow=none;html=1;rounded=0;fontSize=16;entryX=1.004;entryY=1.038;entryDx=0;entryDy=0;entryPerimeter=0;" edge="1" parent="4gbLBs8aLed_kc7UMqUY-23">
          <mxGeometry width="50" height="50" relative="1" as="geometry">
            <mxPoint y="81" as="sourcePoint" />
            <mxPoint x="240.0039999999999" y="81.11999999999995" as="targetPoint" />
          </mxGeometry>
        </mxCell>
        <mxCell id="4gbLBs8aLed_kc7UMqUY-26" value="&lt;br&gt;" style="edgeStyle=orthogonalEdgeStyle;rounded=0;orthogonalLoop=1;jettySize=auto;html=1;exitX=0;exitY=0.5;exitDx=0;exitDy=0;fontSize=16;dashed=1;strokeWidth=2;endArrow=block;endFill=0;elbow=vertical;curved=1;endSize=12;entryX=1;entryY=0.75;entryDx=0;entryDy=0;" edge="1" parent="WIyWlLk6GJQsqaUBKTNV-1" target="4gbLBs8aLed_kc7UMqUY-0">
          <mxGeometry relative="1" as="geometry">
            <mxPoint x="830" y="-430" as="sourcePoint" />
            <mxPoint x="691" y="-620" as="targetPoint" />
          </mxGeometry>
        </mxCell>
        <mxCell id="4gbLBs8aLed_kc7UMqUY-27" value="&lt;br&gt;" style="edgeStyle=orthogonalEdgeStyle;rounded=0;orthogonalLoop=1;jettySize=auto;html=1;exitX=0.004;exitY=0.667;exitDx=0;exitDy=0;fontSize=16;dashed=1;strokeWidth=2;endArrow=block;endFill=0;elbow=vertical;curved=1;endSize=12;entryX=1;entryY=0.5;entryDx=0;entryDy=0;exitPerimeter=0;" edge="1" parent="WIyWlLk6GJQsqaUBKTNV-1" target="4gbLBs8aLed_kc7UMqUY-0">
          <mxGeometry relative="1" as="geometry">
            <mxPoint x="899.9639999999999" y="-549.98" as="sourcePoint" />
            <mxPoint x="704.0799999999999" y="-580.98" as="targetPoint" />
          </mxGeometry>
        </mxCell>
        <mxCell id="4gbLBs8aLed_kc7UMqUY-28" style="edgeStyle=orthogonalEdgeStyle;rounded=0;orthogonalLoop=1;jettySize=auto;html=1;fontSize=16;dashed=1;strokeWidth=2;endArrow=block;endFill=0;elbow=vertical;curved=1;endSize=12;exitX=1.004;exitY=0.683;exitDx=0;exitDy=0;exitPerimeter=0;" edge="1" parent="WIyWlLk6GJQsqaUBKTNV-1">
          <mxGeometry relative="1" as="geometry">
            <mxPoint x="290.96399999999994" y="-489.0200000000002" as="sourcePoint" />
            <mxPoint x="451" y="-620" as="targetPoint" />
            <Array as="points">
              <mxPoint x="331" y="-489" />
              <mxPoint x="331" y="-530" />
              <mxPoint x="381" y="-530" />
              <mxPoint x="381" y="-620" />
            </Array>
          </mxGeometry>
        </mxCell>
        <mxCell id="4gbLBs8aLed_kc7UMqUY-29" value="Side" style="swimlane;fontSize=16;startSize=23;" vertex="1" parent="WIyWlLk6GJQsqaUBKTNV-1">
          <mxGeometry x="1580" y="-660" width="410" height="480" as="geometry" />
        </mxCell>
        <mxCell id="4gbLBs8aLed_kc7UMqUY-30" value="+ Side()&lt;br&gt;+ addPiece(Piece* newPiece)&lt;br&gt;+ removePiece(string position)&lt;br&gt;+ getPiecesVector()&lt;br&gt;+ getPiecesAtLocationX(string location)&lt;br&gt;+ getKingLocation()&lt;br&gt;+ isItSideTurn()&lt;br&gt;+ changeTurnState()&lt;br&gt;+ getSideString()&lt;br&gt;+ isOneOfMyPiecesAtXLocation(string location)&lt;br&gt;+ movePiece(string sourcePosOfPiece, string destinationPosOfPiece)&lt;br&gt;+ operator=(Side&amp;amp; otherSide)&amp;nbsp;&lt;br&gt;+&amp;nbsp;isOneOfMyPiecesCanReachXLocation(string location)&lt;br&gt;+ setCheckState(bool check)&lt;br&gt;+&amp;nbsp;isLegitEatingMoveForPawn(string source, string destination, string name)" style="text;strokeColor=none;fillColor=none;align=left;verticalAlign=top;spacingLeft=4;spacingRight=4;overflow=hidden;rotatable=0;points=[[0,0.5],[1,0.5]];portConstraint=eastwest;whiteSpace=wrap;html=1;fontSize=16;labelBorderColor=none;" vertex="1" parent="4gbLBs8aLed_kc7UMqUY-29">
          <mxGeometry x="-2" y="20" width="412" height="340" as="geometry" />
        </mxCell>
        <mxCell id="4gbLBs8aLed_kc7UMqUY-31" value="" style="endArrow=none;html=1;rounded=0;fontSize=16;entryX=1;entryY=0.75;entryDx=0;entryDy=0;" edge="1" parent="4gbLBs8aLed_kc7UMqUY-29" target="4gbLBs8aLed_kc7UMqUY-29">
          <mxGeometry width="50" height="50" relative="1" as="geometry">
            <mxPoint x="-2" y="360" as="sourcePoint" />
            <mxPoint x="258" y="180" as="targetPoint" />
          </mxGeometry>
        </mxCell>
        <mxCell id="4gbLBs8aLed_kc7UMqUY-32" value="- Pieces: vector&amp;lt;Piece&amp;gt;&lt;br&gt;- thisSideTurn: bool&lt;br&gt;- isChecked: bool" style="text;strokeColor=none;fillColor=none;align=left;verticalAlign=top;spacingLeft=4;spacingRight=4;overflow=hidden;rotatable=0;points=[[0,0.5],[1,0.5]];portConstraint=eastwest;whiteSpace=wrap;html=1;labelBorderColor=none;fontSize=16;" vertex="1" parent="4gbLBs8aLed_kc7UMqUY-29">
          <mxGeometry y="396" width="240" height="140" as="geometry" />
        </mxCell>
        <mxCell id="4gbLBs8aLed_kc7UMqUY-33" value="" style="endArrow=none;html=1;rounded=0;fontSize=16;" edge="1" parent="4gbLBs8aLed_kc7UMqUY-29">
          <mxGeometry width="50" height="50" relative="1" as="geometry">
            <mxPoint y="390" as="sourcePoint" />
            <mxPoint x="410" y="390" as="targetPoint" />
          </mxGeometry>
        </mxCell>
        <mxCell id="4gbLBs8aLed_kc7UMqUY-34" style="edgeStyle=orthogonalEdgeStyle;curved=1;rounded=0;orthogonalLoop=1;jettySize=auto;html=1;exitX=1;exitY=0.5;exitDx=0;exitDy=0;entryX=-0.004;entryY=0.97;entryDx=0;entryDy=0;entryPerimeter=0;strokeWidth=2;fontSize=16;startArrow=none;startFill=0;endArrow=diamondThin;endFill=0;endSize=20;elbow=vertical;" edge="1" parent="WIyWlLk6GJQsqaUBKTNV-1" target="4gbLBs8aLed_kc7UMqUY-30">
          <mxGeometry relative="1" as="geometry">
            <mxPoint x="1139.9999999999995" y="-560" as="sourcePoint" />
          </mxGeometry>
        </mxCell>
        <mxCell id="4gbLBs8aLed_kc7UMqUY-35" style="edgeStyle=orthogonalEdgeStyle;curved=1;rounded=0;orthogonalLoop=1;jettySize=auto;html=1;exitX=1;exitY=0.5;exitDx=0;exitDy=0;entryX=-0.012;entryY=-0.021;entryDx=0;entryDy=0;entryPerimeter=0;strokeWidth=2;fontSize=16;startArrow=none;startFill=0;endArrow=diamondThin;endFill=0;endSize=20;elbow=vertical;" edge="1" parent="WIyWlLk6GJQsqaUBKTNV-1" target="4gbLBs8aLed_kc7UMqUY-32">
          <mxGeometry relative="1" as="geometry">
            <mxPoint x="1071" y="-430" as="sourcePoint" />
            <mxPoint x="1206.9520000000002" y="-748.0999999999999" as="targetPoint" />
          </mxGeometry>
        </mxCell>
        <mxCell id="4gbLBs8aLed_kc7UMqUY-36" style="edgeStyle=orthogonalEdgeStyle;curved=1;rounded=0;orthogonalLoop=1;jettySize=auto;html=1;exitX=1;exitY=0.5;exitDx=0;exitDy=0;entryX=-0.012;entryY=0.236;entryDx=0;entryDy=0;entryPerimeter=0;strokeWidth=2;fontSize=16;startArrow=none;startFill=0;endArrow=diamondThin;endFill=0;endSize=20;elbow=vertical;" edge="1" parent="WIyWlLk6GJQsqaUBKTNV-1" target="4gbLBs8aLed_kc7UMqUY-32">
          <mxGeometry relative="1" as="geometry">
            <mxPoint x="1071" y="-280" as="sourcePoint" />
            <mxPoint x="1207.12" y="-686.04" as="targetPoint" />
          </mxGeometry>
        </mxCell>
        <mxCell id="4gbLBs8aLed_kc7UMqUY-37" style="edgeStyle=orthogonalEdgeStyle;curved=1;rounded=0;orthogonalLoop=1;jettySize=auto;html=1;exitX=0.5;exitY=1;exitDx=0;exitDy=0;entryX=0.5;entryY=1;entryDx=0;entryDy=0;strokeWidth=2;fontSize=16;startArrow=none;startFill=0;endArrow=diamondThin;endFill=0;endSize=20;elbow=vertical;" edge="1" parent="WIyWlLk6GJQsqaUBKTNV-1" source="4gbLBs8aLed_kc7UMqUY-13" target="4gbLBs8aLed_kc7UMqUY-29">
          <mxGeometry relative="1" as="geometry">
            <mxPoint x="1081" y="-270" as="sourcePoint" />
            <mxPoint x="1207.12" y="-643.06" as="targetPoint" />
          </mxGeometry>
        </mxCell>
        <mxCell id="4gbLBs8aLed_kc7UMqUY-38" style="edgeStyle=orthogonalEdgeStyle;curved=1;rounded=0;orthogonalLoop=1;jettySize=auto;html=1;strokeWidth=2;fontSize=16;startArrow=none;startFill=0;endArrow=diamondThin;endFill=0;endSize=20;elbow=vertical;exitX=0.5;exitY=1;exitDx=0;exitDy=0;entryX=0.75;entryY=1;entryDx=0;entryDy=0;" edge="1" parent="WIyWlLk6GJQsqaUBKTNV-1" source="4gbLBs8aLed_kc7UMqUY-9" target="4gbLBs8aLed_kc7UMqUY-29">
          <mxGeometry relative="1" as="geometry">
            <mxPoint x="520" y="-220" as="sourcePoint" />
            <mxPoint x="1390" y="-570" as="targetPoint" />
          </mxGeometry>
        </mxCell>
        <mxCell id="4gbLBs8aLed_kc7UMqUY-39" style="edgeStyle=orthogonalEdgeStyle;curved=1;rounded=0;orthogonalLoop=1;jettySize=auto;html=1;exitX=0.454;exitY=0;exitDx=0;exitDy=0;strokeWidth=2;fontSize=16;startArrow=none;startFill=0;endArrow=diamondThin;endFill=0;endSize=20;elbow=vertical;exitPerimeter=0;entryX=-0.007;entryY=0.044;entryDx=0;entryDy=0;entryPerimeter=0;" edge="1" parent="WIyWlLk6GJQsqaUBKTNV-1" source="4gbLBs8aLed_kc7UMqUY-20" target="4gbLBs8aLed_kc7UMqUY-30">
          <mxGeometry relative="1" as="geometry">
            <mxPoint x="1060" y="-821.9" as="sourcePoint" />
            <mxPoint x="1020" y="-1090" as="targetPoint" />
            <Array as="points">
              <mxPoint x="230" y="-1100" />
              <mxPoint x="1395" y="-1100" />
            </Array>
          </mxGeometry>
        </mxCell>
        <mxCell id="4gbLBs8aLed_kc7UMqUY-40" value="Board" style="swimlane;fontSize=16;startSize=23;" vertex="1" parent="WIyWlLk6GJQsqaUBKTNV-1">
          <mxGeometry x="2011" y="-1160" width="470" height="540" as="geometry" />
        </mxCell>
        <mxCell id="4gbLBs8aLed_kc7UMqUY-41" value="+ Board()&lt;br&gt;+ isBlackTurn()&lt;br&gt;+ isWhiteTurn()&lt;br&gt;+ getBoardString()&lt;br&gt;+ setBoardString(string newBoard)&lt;br&gt;+ printBoard()&lt;br&gt;+ eatPiece(string position)&lt;br&gt;+ isSquareTaken(string position)&lt;br&gt;+ movePieceAtBoard(string source, string destination)&lt;br&gt;+ updatedBoardString()&lt;br&gt;+ createPiece(string name, string type, string position)&lt;br&gt;+ isKingChecked()&lt;br&gt;+ isOneOfBlackPiecesCanReachLocationX(string srcPosition, dest position)&lt;br&gt;+ isOneOfWhitePiecesCanReachLocationX(string srcPosition, dest position)&lt;br&gt;+ isThereAnInterrupterPieceAtPath(string srcPosition, string destPosition)&lt;br&gt;- changeTurn()" style="text;strokeColor=none;fillColor=none;align=left;verticalAlign=top;spacingLeft=4;spacingRight=4;overflow=hidden;rotatable=0;points=[[0,0.5],[1,0.5]];portConstraint=eastwest;whiteSpace=wrap;html=1;fontSize=16;labelBorderColor=none;" vertex="1" parent="4gbLBs8aLed_kc7UMqUY-40">
          <mxGeometry x="-1" y="20" width="471" height="420" as="geometry" />
        </mxCell>
        <mxCell id="4gbLBs8aLed_kc7UMqUY-42" value="- blackSide: Side&lt;br&gt;- whiteSide: Side&lt;br&gt;- board: string" style="text;strokeColor=none;fillColor=none;align=left;verticalAlign=top;spacingLeft=4;spacingRight=4;overflow=hidden;rotatable=0;points=[[0,0.5],[1,0.5]];portConstraint=eastwest;whiteSpace=wrap;html=1;labelBorderColor=none;fontSize=16;" vertex="1" parent="4gbLBs8aLed_kc7UMqUY-40">
          <mxGeometry x="-1" y="470" width="240" height="140" as="geometry" />
        </mxCell>
        <mxCell id="4gbLBs8aLed_kc7UMqUY-43" value="" style="endArrow=none;html=1;rounded=0;fontSize=16;" edge="1" parent="4gbLBs8aLed_kc7UMqUY-40">
          <mxGeometry width="50" height="50" relative="1" as="geometry">
            <mxPoint x="-1" y="440" as="sourcePoint" />
            <mxPoint x="470" y="440" as="targetPoint" />
          </mxGeometry>
        </mxCell>
        <mxCell id="4gbLBs8aLed_kc7UMqUY-44" value="" style="endArrow=none;html=1;rounded=0;fontSize=16;exitX=0.004;exitY=0.279;exitDx=0;exitDy=0;exitPerimeter=0;" edge="1" parent="4gbLBs8aLed_kc7UMqUY-40">
          <mxGeometry width="50" height="50" relative="1" as="geometry">
            <mxPoint x="-0.002000000000334623" y="470.9999999999998" as="sourcePoint" />
            <mxPoint x="471" y="470" as="targetPoint" />
          </mxGeometry>
        </mxCell>
        <mxCell id="4gbLBs8aLed_kc7UMqUY-45" style="edgeStyle=orthogonalEdgeStyle;curved=1;rounded=0;orthogonalLoop=1;jettySize=auto;html=1;entryX=-0.011;entryY=0.406;entryDx=0;entryDy=0;entryPerimeter=0;strokeWidth=2;fontSize=16;startArrow=none;startFill=0;endArrow=diamondThin;endFill=0;endSize=20;elbow=vertical;exitX=1.016;exitY=0.606;exitDx=0;exitDy=0;exitPerimeter=0;" edge="1" parent="WIyWlLk6GJQsqaUBKTNV-1" source="4gbLBs8aLed_kc7UMqUY-30" target="4gbLBs8aLed_kc7UMqUY-41">
          <mxGeometry relative="1" as="geometry">
            <mxPoint x="1570" y="-960" as="sourcePoint" />
            <mxPoint x="1605.9519999999998" y="-759.9999999999999" as="targetPoint" />
          </mxGeometry>
        </mxCell>
      </root>
    </mxGraphModel>
  </diagram>
</mxfile>
